<svg xmlns="http://www.w3.org/2000/svg" viewBox="0 0 64 64">
  <defs>
    <linearGradient id="bg" x1="8" x2="56" y1="8" y2="56" gradientUnits="userSpaceOnUse">
      <stop stop-color="#2563eb" />
      <stop offset="0.55" stop-color="#6d28d9" />
      <stop offset="1" stop-color="#0f172a" />
    </linearGradient>
    <linearGradient id="path" x1="16" x2="48" y1="20" y2="44" gradientUnits="userSpaceOnUse">
      <stop stop-color="#dbeafe" />
      <stop offset="1" stop-color="#7dd3fc" />
    </linearGradient>
  </defs>
  <rect width="64" height="64" rx="16" fill="url(#bg)" />
  <path d="M18 42V22h17c7 0 11 4 11 10 0 4-2 7-6 9l8 11H36l-7-10h-4v10H18Zm7-16v10h9c3 0 5-2 5-5s-2-5-5-5h-9Z" fill="white" />
  <path d="M15 49c8-11 18-18 34-25" fill="none" stroke="url(#path)" stroke-width="4" stroke-linecap="round" />
  <circle cx="15" cy="49" r="4" fill="#22c55e" />
  <circle cx="49" cy="24" r="4" fill="#fbbf24" />
</svg>
